<mxfile host="app.diagrams.net" modified="2024-04-20T15:04:48.777Z" agent="Mozilla/5.0 (Windows NT 10.0; Win64; x64) AppleWebKit/537.36 (KHTML, like Gecko) Chrome/124.0.0.0 Safari/537.36" etag="g9DOQPgFrcrkxKb-IcZP" version="24.2.7" type="device">
  <diagram name="PÃ¡gina-1" id="eYkGCyqy0bsZ_CM61Fpu">
    <mxGraphModel dx="3341" dy="2506" grid="1" gridSize="10" guides="1" tooltips="1" connect="1" arrows="1" fold="1" page="1" pageScale="1" pageWidth="827" pageHeight="1169" math="0" shadow="0">
      <root>
        <mxCell id="0" />
        <mxCell id="1" parent="0" />
        <mxCell id="XubNpZwn4meMRp4vUe5j-351" style="edgeStyle=orthogonalEdgeStyle;rounded=0;orthogonalLoop=1;jettySize=auto;html=1;entryX=0.5;entryY=0;entryDx=0;entryDy=0;endArrow=none;endFill=0;exitX=0.75;exitY=1;exitDx=0;exitDy=0;" edge="1" parent="1" source="XubNpZwn4meMRp4vUe5j-323" target="XubNpZwn4meMRp4vUe5j-336">
          <mxGeometry relative="1" as="geometry">
            <Array as="points">
              <mxPoint x="200" y="-800" />
              <mxPoint x="280" y="-800" />
            </Array>
          </mxGeometry>
        </mxCell>
        <mxCell id="XubNpZwn4meMRp4vUe5j-352" style="edgeStyle=orthogonalEdgeStyle;rounded=0;orthogonalLoop=1;jettySize=auto;html=1;exitX=0.25;exitY=1;exitDx=0;exitDy=0;entryX=0.5;entryY=0;entryDx=0;entryDy=0;endArrow=none;endFill=0;" edge="1" parent="1" source="XubNpZwn4meMRp4vUe5j-323" target="XubNpZwn4meMRp4vUe5j-337">
          <mxGeometry relative="1" as="geometry">
            <Array as="points">
              <mxPoint x="140" y="-800" />
              <mxPoint x="70" y="-800" />
            </Array>
          </mxGeometry>
        </mxCell>
        <mxCell id="XubNpZwn4meMRp4vUe5j-323" value="&lt;font style=&quot;font-size: 18px;&quot;&gt;usuario&lt;/font&gt;" style="rounded=0;whiteSpace=wrap;html=1;" vertex="1" parent="1">
          <mxGeometry x="110" y="-880" width="120" height="60" as="geometry" />
        </mxCell>
        <mxCell id="XubNpZwn4meMRp4vUe5j-324" value="&lt;font style=&quot;font-size: 18px;&quot;&gt;tipoUsuario&lt;/font&gt;" style="rounded=0;whiteSpace=wrap;html=1;" vertex="1" parent="1">
          <mxGeometry x="620" y="-880" width="120" height="60" as="geometry" />
        </mxCell>
        <mxCell id="XubNpZwn4meMRp4vUe5j-325" value="&lt;font style=&quot;font-size: 18px;&quot;&gt;Possui&lt;/font&gt;" style="rhombus;whiteSpace=wrap;html=1;" vertex="1" parent="1">
          <mxGeometry x="360" y="-890" width="140" height="80" as="geometry" />
        </mxCell>
        <mxCell id="XubNpZwn4meMRp4vUe5j-327" value="&lt;font style=&quot;font-size: 18px;&quot;&gt;endereco&lt;/font&gt;" style="rounded=0;whiteSpace=wrap;html=1;" vertex="1" parent="1">
          <mxGeometry x="110" y="-240" width="120" height="60" as="geometry" />
        </mxCell>
        <mxCell id="XubNpZwn4meMRp4vUe5j-330" value="" style="endArrow=none;html=1;rounded=0;entryX=0;entryY=0.5;entryDx=0;entryDy=0;exitX=1;exitY=0.5;exitDx=0;exitDy=0;" edge="1" parent="1" source="XubNpZwn4meMRp4vUe5j-323" target="XubNpZwn4meMRp4vUe5j-325">
          <mxGeometry width="50" height="50" relative="1" as="geometry">
            <mxPoint x="150" y="-700" as="sourcePoint" />
            <mxPoint x="200" y="-750" as="targetPoint" />
          </mxGeometry>
        </mxCell>
        <mxCell id="XubNpZwn4meMRp4vUe5j-331" value="" style="endArrow=none;html=1;rounded=0;entryX=0;entryY=0.5;entryDx=0;entryDy=0;exitX=1;exitY=0.5;exitDx=0;exitDy=0;" edge="1" parent="1" source="XubNpZwn4meMRp4vUe5j-325" target="XubNpZwn4meMRp4vUe5j-324">
          <mxGeometry width="50" height="50" relative="1" as="geometry">
            <mxPoint x="460" y="-850.71" as="sourcePoint" />
            <mxPoint x="590" y="-850.71" as="targetPoint" />
          </mxGeometry>
        </mxCell>
        <mxCell id="XubNpZwn4meMRp4vUe5j-355" style="edgeStyle=orthogonalEdgeStyle;rounded=0;orthogonalLoop=1;jettySize=auto;html=1;entryX=0;entryY=0.5;entryDx=0;entryDy=0;endArrow=none;endFill=0;" edge="1" parent="1" source="XubNpZwn4meMRp4vUe5j-334" target="XubNpZwn4meMRp4vUe5j-353">
          <mxGeometry relative="1" as="geometry" />
        </mxCell>
        <mxCell id="XubNpZwn4meMRp4vUe5j-334" value="&lt;font style=&quot;font-size: 18px;&quot;&gt;mae&lt;/font&gt;" style="rounded=0;whiteSpace=wrap;html=1;" vertex="1" parent="1">
          <mxGeometry x="220" y="-550" width="120" height="60" as="geometry" />
        </mxCell>
        <mxCell id="XubNpZwn4meMRp4vUe5j-357" style="edgeStyle=orthogonalEdgeStyle;rounded=0;orthogonalLoop=1;jettySize=auto;html=1;entryX=0;entryY=0.5;entryDx=0;entryDy=0;endArrow=none;endFill=0;" edge="1" parent="1" source="XubNpZwn4meMRp4vUe5j-335" target="XubNpZwn4meMRp4vUe5j-354">
          <mxGeometry relative="1" as="geometry">
            <Array as="points">
              <mxPoint x="-50" y="-520" />
              <mxPoint x="-50" y="-160" />
              <mxPoint x="410" y="-160" />
            </Array>
          </mxGeometry>
        </mxCell>
        <mxCell id="XubNpZwn4meMRp4vUe5j-335" value="&lt;font style=&quot;font-size: 18px;&quot;&gt;pai&lt;/font&gt;" style="rounded=0;whiteSpace=wrap;html=1;" vertex="1" parent="1">
          <mxGeometry x="10" y="-550" width="120" height="60" as="geometry" />
        </mxCell>
        <mxCell id="XubNpZwn4meMRp4vUe5j-336" value="&lt;font style=&quot;font-size: 18px;&quot;&gt;Possui&lt;/font&gt;" style="rhombus;whiteSpace=wrap;html=1;" vertex="1" parent="1">
          <mxGeometry x="210" y="-730" width="140" height="80" as="geometry" />
        </mxCell>
        <mxCell id="XubNpZwn4meMRp4vUe5j-337" value="&lt;font style=&quot;font-size: 18px;&quot;&gt;Possui&lt;/font&gt;" style="rhombus;whiteSpace=wrap;html=1;" vertex="1" parent="1">
          <mxGeometry y="-730" width="140" height="80" as="geometry" />
        </mxCell>
        <mxCell id="XubNpZwn4meMRp4vUe5j-340" value="" style="endArrow=none;html=1;rounded=0;entryX=0.5;entryY=1;entryDx=0;entryDy=0;exitX=0.5;exitY=0;exitDx=0;exitDy=0;" edge="1" parent="1" source="XubNpZwn4meMRp4vUe5j-335" target="XubNpZwn4meMRp4vUe5j-337">
          <mxGeometry width="50" height="50" relative="1" as="geometry">
            <mxPoint x="260" y="-820" as="sourcePoint" />
            <mxPoint x="390" y="-820" as="targetPoint" />
          </mxGeometry>
        </mxCell>
        <mxCell id="XubNpZwn4meMRp4vUe5j-341" value="" style="endArrow=none;html=1;rounded=0;entryX=0.5;entryY=1;entryDx=0;entryDy=0;exitX=0.5;exitY=0;exitDx=0;exitDy=0;" edge="1" parent="1" source="XubNpZwn4meMRp4vUe5j-334" target="XubNpZwn4meMRp4vUe5j-336">
          <mxGeometry width="50" height="50" relative="1" as="geometry">
            <mxPoint x="270" y="-810" as="sourcePoint" />
            <mxPoint x="400" y="-810" as="targetPoint" />
          </mxGeometry>
        </mxCell>
        <mxCell id="XubNpZwn4meMRp4vUe5j-343" value="&lt;font style=&quot;font-size: 18px;&quot;&gt;Possui&lt;/font&gt;" style="rhombus;whiteSpace=wrap;html=1;" vertex="1" parent="1">
          <mxGeometry x="210" y="-390" width="140" height="80" as="geometry" />
        </mxCell>
        <mxCell id="XubNpZwn4meMRp4vUe5j-344" value="&lt;font style=&quot;font-size: 18px;&quot;&gt;Possui&lt;/font&gt;" style="rhombus;whiteSpace=wrap;html=1;" vertex="1" parent="1">
          <mxGeometry y="-390" width="140" height="80" as="geometry" />
        </mxCell>
        <mxCell id="XubNpZwn4meMRp4vUe5j-345" value="" style="endArrow=none;html=1;rounded=0;exitX=0.5;exitY=0;exitDx=0;exitDy=0;entryX=0.5;entryY=1;entryDx=0;entryDy=0;" edge="1" parent="1" source="XubNpZwn4meMRp4vUe5j-344" target="XubNpZwn4meMRp4vUe5j-335">
          <mxGeometry width="50" height="50" relative="1" as="geometry">
            <mxPoint x="80" y="-540" as="sourcePoint" />
            <mxPoint x="90" y="-450" as="targetPoint" />
          </mxGeometry>
        </mxCell>
        <mxCell id="XubNpZwn4meMRp4vUe5j-346" value="" style="endArrow=none;html=1;rounded=0;entryX=0.5;entryY=1;entryDx=0;entryDy=0;exitX=0.5;exitY=0;exitDx=0;exitDy=0;" edge="1" parent="1" source="XubNpZwn4meMRp4vUe5j-343" target="XubNpZwn4meMRp4vUe5j-334">
          <mxGeometry width="50" height="50" relative="1" as="geometry">
            <mxPoint x="90" y="-530" as="sourcePoint" />
            <mxPoint x="90" y="-630" as="targetPoint" />
          </mxGeometry>
        </mxCell>
        <mxCell id="XubNpZwn4meMRp4vUe5j-348" value="" style="endArrow=none;html=1;rounded=0;exitX=0;exitY=0.5;exitDx=0;exitDy=0;entryX=0.5;entryY=1;entryDx=0;entryDy=0;" edge="1" parent="1" source="XubNpZwn4meMRp4vUe5j-327" target="XubNpZwn4meMRp4vUe5j-344">
          <mxGeometry width="50" height="50" relative="1" as="geometry">
            <mxPoint x="90" y="-370" as="sourcePoint" />
            <mxPoint x="90" y="-470" as="targetPoint" />
            <Array as="points">
              <mxPoint x="70" y="-210" />
            </Array>
          </mxGeometry>
        </mxCell>
        <mxCell id="XubNpZwn4meMRp4vUe5j-349" value="" style="endArrow=none;html=1;rounded=0;exitX=1;exitY=0.5;exitDx=0;exitDy=0;entryX=0.5;entryY=1;entryDx=0;entryDy=0;" edge="1" parent="1" source="XubNpZwn4meMRp4vUe5j-327" target="XubNpZwn4meMRp4vUe5j-343">
          <mxGeometry width="50" height="50" relative="1" as="geometry">
            <mxPoint x="100" y="-360" as="sourcePoint" />
            <mxPoint x="100" y="-460" as="targetPoint" />
            <Array as="points">
              <mxPoint x="280" y="-210" />
            </Array>
          </mxGeometry>
        </mxCell>
        <mxCell id="XubNpZwn4meMRp4vUe5j-363" style="edgeStyle=orthogonalEdgeStyle;rounded=0;orthogonalLoop=1;jettySize=auto;html=1;entryX=0.5;entryY=1;entryDx=0;entryDy=0;endArrow=none;endFill=0;" edge="1" parent="1" source="XubNpZwn4meMRp4vUe5j-350" target="XubNpZwn4meMRp4vUe5j-359">
          <mxGeometry relative="1" as="geometry" />
        </mxCell>
        <mxCell id="XubNpZwn4meMRp4vUe5j-375" style="edgeStyle=orthogonalEdgeStyle;rounded=0;orthogonalLoop=1;jettySize=auto;html=1;endArrow=none;endFill=0;exitX=1;exitY=1;exitDx=0;exitDy=0;" edge="1" parent="1" source="XubNpZwn4meMRp4vUe5j-350" target="XubNpZwn4meMRp4vUe5j-373">
          <mxGeometry relative="1" as="geometry">
            <Array as="points">
              <mxPoint x="810" y="-490" />
            </Array>
          </mxGeometry>
        </mxCell>
        <mxCell id="XubNpZwn4meMRp4vUe5j-377" style="edgeStyle=orthogonalEdgeStyle;rounded=0;orthogonalLoop=1;jettySize=auto;html=1;exitX=1;exitY=0.25;exitDx=0;exitDy=0;entryX=0.5;entryY=1;entryDx=0;entryDy=0;endArrow=none;endFill=0;" edge="1" parent="1" source="XubNpZwn4meMRp4vUe5j-350" target="XubNpZwn4meMRp4vUe5j-376">
          <mxGeometry relative="1" as="geometry" />
        </mxCell>
        <mxCell id="XubNpZwn4meMRp4vUe5j-382" style="edgeStyle=orthogonalEdgeStyle;rounded=0;orthogonalLoop=1;jettySize=auto;html=1;entryX=0;entryY=0.5;entryDx=0;entryDy=0;endArrow=none;endFill=0;" edge="1" parent="1" source="XubNpZwn4meMRp4vUe5j-350" target="XubNpZwn4meMRp4vUe5j-381">
          <mxGeometry relative="1" as="geometry">
            <Array as="points">
              <mxPoint x="950" y="-520" />
              <mxPoint x="950" y="-554" />
            </Array>
          </mxGeometry>
        </mxCell>
        <mxCell id="XubNpZwn4meMRp4vUe5j-384" style="edgeStyle=orthogonalEdgeStyle;rounded=0;orthogonalLoop=1;jettySize=auto;html=1;exitX=1;exitY=0.75;exitDx=0;exitDy=0;entryX=0;entryY=0.5;entryDx=0;entryDy=0;endArrow=none;endFill=0;" edge="1" parent="1" source="XubNpZwn4meMRp4vUe5j-350" target="XubNpZwn4meMRp4vUe5j-379">
          <mxGeometry relative="1" as="geometry" />
        </mxCell>
        <mxCell id="XubNpZwn4meMRp4vUe5j-350" value="&lt;font style=&quot;font-size: 18px;&quot;&gt;crianca&lt;/font&gt;" style="rounded=0;whiteSpace=wrap;html=1;" vertex="1" parent="1">
          <mxGeometry x="610" y="-550" width="120" height="60" as="geometry" />
        </mxCell>
        <mxCell id="XubNpZwn4meMRp4vUe5j-356" style="edgeStyle=orthogonalEdgeStyle;rounded=0;orthogonalLoop=1;jettySize=auto;html=1;entryX=0;entryY=0.5;entryDx=0;entryDy=0;endArrow=none;endFill=0;" edge="1" parent="1" source="XubNpZwn4meMRp4vUe5j-353" target="XubNpZwn4meMRp4vUe5j-350">
          <mxGeometry relative="1" as="geometry" />
        </mxCell>
        <mxCell id="XubNpZwn4meMRp4vUe5j-353" value="&lt;font style=&quot;font-size: 18px;&quot;&gt;Possui&lt;/font&gt;" style="rhombus;whiteSpace=wrap;html=1;" vertex="1" parent="1">
          <mxGeometry x="410" y="-560" width="140" height="80" as="geometry" />
        </mxCell>
        <mxCell id="XubNpZwn4meMRp4vUe5j-358" style="edgeStyle=orthogonalEdgeStyle;rounded=0;orthogonalLoop=1;jettySize=auto;html=1;entryX=0.5;entryY=1;entryDx=0;entryDy=0;endArrow=none;endFill=0;" edge="1" parent="1" source="XubNpZwn4meMRp4vUe5j-354" target="XubNpZwn4meMRp4vUe5j-350">
          <mxGeometry relative="1" as="geometry" />
        </mxCell>
        <mxCell id="XubNpZwn4meMRp4vUe5j-354" value="&lt;font style=&quot;font-size: 18px;&quot;&gt;Possui&lt;/font&gt;" style="rhombus;whiteSpace=wrap;html=1;" vertex="1" parent="1">
          <mxGeometry x="410" y="-440" width="140" height="80" as="geometry" />
        </mxCell>
        <mxCell id="XubNpZwn4meMRp4vUe5j-364" style="edgeStyle=orthogonalEdgeStyle;rounded=0;orthogonalLoop=1;jettySize=auto;html=1;endArrow=none;endFill=0;" edge="1" parent="1" source="XubNpZwn4meMRp4vUe5j-359" target="XubNpZwn4meMRp4vUe5j-362">
          <mxGeometry relative="1" as="geometry" />
        </mxCell>
        <mxCell id="XubNpZwn4meMRp4vUe5j-359" value="&lt;font style=&quot;font-size: 18px;&quot;&gt;Possui&lt;/font&gt;" style="rhombus;whiteSpace=wrap;html=1;" vertex="1" parent="1">
          <mxGeometry x="600" y="-700" width="140" height="80" as="geometry" />
        </mxCell>
        <mxCell id="XubNpZwn4meMRp4vUe5j-362" value="&lt;font style=&quot;font-size: 18px;&quot;&gt;raca&lt;/font&gt;" style="rounded=0;whiteSpace=wrap;html=1;" vertex="1" parent="1">
          <mxGeometry x="420" y="-690" width="120" height="60" as="geometry" />
        </mxCell>
        <mxCell id="XubNpZwn4meMRp4vUe5j-371" style="edgeStyle=orthogonalEdgeStyle;rounded=0;orthogonalLoop=1;jettySize=auto;html=1;entryX=0.5;entryY=1;entryDx=0;entryDy=0;endArrow=none;endFill=0;" edge="1" parent="1" source="XubNpZwn4meMRp4vUe5j-365" target="XubNpZwn4meMRp4vUe5j-370">
          <mxGeometry relative="1" as="geometry" />
        </mxCell>
        <mxCell id="XubNpZwn4meMRp4vUe5j-365" value="&lt;font style=&quot;font-size: 18px;&quot;&gt;mchat&lt;/font&gt;" style="rounded=0;whiteSpace=wrap;html=1;" vertex="1" parent="1">
          <mxGeometry x="750" width="120" height="60" as="geometry" />
        </mxCell>
        <mxCell id="XubNpZwn4meMRp4vUe5j-374" value="" style="edgeStyle=orthogonalEdgeStyle;rounded=0;orthogonalLoop=1;jettySize=auto;html=1;endArrow=none;endFill=0;" edge="1" parent="1" source="XubNpZwn4meMRp4vUe5j-366" target="XubNpZwn4meMRp4vUe5j-373">
          <mxGeometry relative="1" as="geometry" />
        </mxCell>
        <mxCell id="XubNpZwn4meMRp4vUe5j-366" value="&lt;font style=&quot;font-size: 18px;&quot;&gt;marcoCrianca&lt;/font&gt;" style="rounded=0;whiteSpace=wrap;html=1;" vertex="1" parent="1">
          <mxGeometry x="740" y="-310" width="140" height="74" as="geometry" />
        </mxCell>
        <mxCell id="XubNpZwn4meMRp4vUe5j-367" value="&lt;font style=&quot;font-size: 18px;&quot;&gt;nutricao&lt;/font&gt;" style="rounded=0;whiteSpace=wrap;html=1;" vertex="1" parent="1">
          <mxGeometry x="810" y="-820" width="120" height="60" as="geometry" />
        </mxCell>
        <mxCell id="XubNpZwn4meMRp4vUe5j-368" value="&lt;font style=&quot;font-size: 18px;&quot;&gt;exames&lt;/font&gt;" style="rounded=0;whiteSpace=wrap;html=1;" vertex="1" parent="1">
          <mxGeometry x="1230" y="-584" width="120" height="60" as="geometry" />
        </mxCell>
        <mxCell id="XubNpZwn4meMRp4vUe5j-369" value="&lt;font style=&quot;font-size: 18px;&quot;&gt;medAntropometricas&lt;/font&gt;" style="rounded=0;whiteSpace=wrap;html=1;" vertex="1" parent="1">
          <mxGeometry x="1230" y="-470" width="220" height="60" as="geometry" />
        </mxCell>
        <mxCell id="XubNpZwn4meMRp4vUe5j-372" style="edgeStyle=orthogonalEdgeStyle;rounded=0;orthogonalLoop=1;jettySize=auto;html=1;entryX=0.5;entryY=1;entryDx=0;entryDy=0;endArrow=none;endFill=0;" edge="1" parent="1" source="XubNpZwn4meMRp4vUe5j-370" target="XubNpZwn4meMRp4vUe5j-366">
          <mxGeometry relative="1" as="geometry" />
        </mxCell>
        <mxCell id="XubNpZwn4meMRp4vUe5j-370" value="&lt;font style=&quot;font-size: 18px;&quot;&gt;Possui&lt;/font&gt;" style="rhombus;whiteSpace=wrap;html=1;" vertex="1" parent="1">
          <mxGeometry x="740" y="-160" width="140" height="80" as="geometry" />
        </mxCell>
        <mxCell id="XubNpZwn4meMRp4vUe5j-373" value="&lt;font style=&quot;font-size: 18px;&quot;&gt;Possui&lt;/font&gt;" style="rhombus;whiteSpace=wrap;html=1;" vertex="1" parent="1">
          <mxGeometry x="740" y="-440" width="140" height="80" as="geometry" />
        </mxCell>
        <mxCell id="XubNpZwn4meMRp4vUe5j-378" style="edgeStyle=orthogonalEdgeStyle;rounded=0;orthogonalLoop=1;jettySize=auto;html=1;entryX=0.5;entryY=1;entryDx=0;entryDy=0;endArrow=none;endFill=0;" edge="1" parent="1" source="XubNpZwn4meMRp4vUe5j-376" target="XubNpZwn4meMRp4vUe5j-367">
          <mxGeometry relative="1" as="geometry" />
        </mxCell>
        <mxCell id="XubNpZwn4meMRp4vUe5j-376" value="&lt;font style=&quot;font-size: 18px;&quot;&gt;Possui&lt;/font&gt;" style="rhombus;whiteSpace=wrap;html=1;" vertex="1" parent="1">
          <mxGeometry x="800" y="-700" width="140" height="80" as="geometry" />
        </mxCell>
        <mxCell id="XubNpZwn4meMRp4vUe5j-385" style="edgeStyle=orthogonalEdgeStyle;rounded=0;orthogonalLoop=1;jettySize=auto;html=1;entryX=0;entryY=0.5;entryDx=0;entryDy=0;endArrow=none;endFill=0;" edge="1" parent="1" source="XubNpZwn4meMRp4vUe5j-379" target="XubNpZwn4meMRp4vUe5j-369">
          <mxGeometry relative="1" as="geometry" />
        </mxCell>
        <mxCell id="XubNpZwn4meMRp4vUe5j-379" value="&lt;font style=&quot;font-size: 18px;&quot;&gt;Possui&lt;/font&gt;" style="rhombus;whiteSpace=wrap;html=1;" vertex="1" parent="1">
          <mxGeometry x="990" y="-480" width="140" height="80" as="geometry" />
        </mxCell>
        <mxCell id="XubNpZwn4meMRp4vUe5j-383" style="edgeStyle=orthogonalEdgeStyle;rounded=0;orthogonalLoop=1;jettySize=auto;html=1;entryX=0;entryY=0.5;entryDx=0;entryDy=0;endArrow=none;endFill=0;" edge="1" parent="1" source="XubNpZwn4meMRp4vUe5j-381" target="XubNpZwn4meMRp4vUe5j-368">
          <mxGeometry relative="1" as="geometry" />
        </mxCell>
        <mxCell id="XubNpZwn4meMRp4vUe5j-381" value="&lt;font style=&quot;font-size: 18px;&quot;&gt;Possui&lt;/font&gt;" style="rhombus;whiteSpace=wrap;html=1;" vertex="1" parent="1">
          <mxGeometry x="990" y="-594" width="140" height="80" as="geometry" />
        </mxCell>
      </root>
    </mxGraphModel>
  </diagram>
</mxfile>
